PathFileType	4	(x/y/z)	S09_M20_T19
DataRate	CameraRate	NumFrames	NumMarkers	Units	OrigDataRate	OrigDataStartFrame	OrigNumFrames
240	240	8	51	mm	240	487	556
Frame#	Time	Sternum			R.Acromium			L.Acromium			Top.Head			R.ASIS			L.ASIS			R.PSIS			L.PSIS			R.Great.Tro			L.Great.Tro			R.Iliac.Crest			L.Iliac.Crest			V.Sacral			R.Thigh.Upper.Post			R.Thigh.Lower.Ant			R.Thigh.Lower.Post			R.Thigh.Upper.Ant			R.Knee.Lat			R.Knee.Med			R.Shank.Upper.Post			R.Shank.Lower.Ant			R.Shank.Lower.Post			R.Shank.Upper.Ant			R.Ankle.Lat			R.Ankle.Med			R.Heel.Upper			R.Heel.Med			R.Heel.Lat			R.Toe.Lat			R.Toe.Med			R.Toe.Tip			L.Thigh.Upper.Post			L.Thigh.Lower.Ant			L.Thigh.Lower.Post			L.Thigh.Upper.Ant			L.Knee.Lat			L.Knee.Med			L.Shank.Upper.Post			L.Shank.Lower.Ant			L.Shank.Lower.Post			L.Shank.Upper.Ant			L.Ankle.Lat			L.Ankle.Med			L.Heel.Upper			L.Heel.Med			L.Heel.Lat			L.Toe.Lat			L.Toe.Med			L.Toe.Tip			Cervical.Spine			Back			
		X1	Y1	Z1	X2	Y2	Z2	X3	Y3	Z3	X4	Y4	Z4	X5	Y5	Z5	X6	Y6	Z6	X7	Y7	Z7	X8	Y8	Z8	X9	Y9	Z9	X10	Y10	Z10	X11	Y11	Z11	X12	Y12	Z12	X13	Y13	Z13	X14	Y14	Z14	X15	Y15	Z15	X16	Y16	Z16	X17	Y17	Z17	X18	Y18	Z18	X19	Y19	Z19	X20	Y20	Z20	X21	Y21	Z21	X22	Y22	Z22	X23	Y23	Z23	X24	Y24	Z24	X25	Y25	Z25	X26	Y26	Z26	X27	Y27	Z27	X28	Y28	Z28	X29	Y29	Z29	X30	Y30	Z30	X31	Y31	Z31	X32	Y32	Z32	X33	Y33	Z33	X34	Y34	Z34	X35	Y35	Z35	X36	Y36	Z36	X37	Y37	Z37	X38	Y38	Z38	X39	Y39	Z39	X40	Y40	Z40	X41	Y41	Z41	X42	Y42	Z42	X43	Y43	Z43	X44	Y44	Z44	X45	Y45	Z45	X46	Y46	Z46	X47	Y47	Z47	X48	Y48	Z48	X49	Y49	Z49	X50	Y50	Z50	X51	Y51	Z51	

487	2.025	1721.5	1175.9	253.65	1582.2	1415.9	408.4	1583.6	1416.6	95.877	1593.2	1713.9	246.94	1691.9	1006.7	358.83	1677.6	1011.7	111.98	1466.3	1013.5	296.78	1468	1024.9	207.02	1625.9	911.54	436.95	1603.3	920.23	48.663	1599.3	1077.1	410.38	1560.3	1101.2	84.042	1448.2	984.37	244.98	1730	681.65	420.5	1836.8	622.98	378.42	1764.3	596.36	393.95	1797.2	701.3	403.42	1850.3	549.39	375.83	1840.2	528.87	250.21	1852.9	364.79	395.09	1938	334.76	383.4	1880.2	293.28	389.12	1906.4	401.17	391.79	1978.8	127.11	379.62	2000.8	151.73	292.65	1934.1	78.31	324.55	1961	56.936	296.27	1949.8	51.853	360.02	2092.7	117.27	418.22	2132.7	153.41	320.39	2161.3	188.83	366.8	1507.4	673.32	116.1	1573.8	566.17	116.76	1508.9	584.27	137.66	1572.9	652	91.384	1543.8	489.17	131.67	1572.8	504.27	262.6	1459.6	372.25	129.06	1496.1	269.09	146.52	1438.2	298.91	140.41	1516.6	344.05	135.68	1401.1	106.66	173.76	1415.3	98.742	267.65	1325.2	76.82	229.52	1336.9	49.743	259.37	1322.3	49.829	199.66	1491.1	42.492	134.49	1535.2	37.52	241.49	1583	52.454	179.46	1502.2	1464.9	261.64	1457.7	1195.5	246.35
488	2.0292	1726.4	1174.9	253.88	1587.3	1415	408.8	1588.7	1415.7	96.287	1598.3	1713	247.45	1697.1	1006	358.98	1682.3	1010.9	112.09	1471.3	1012.6	297.14	1472.8	1024	207.44	1631.2	910.75	437.03	1607.8	919.49	48.781	1604.4	1076.2	410.63	1565	1100.5	84.346	1453.2	983.46	245.38	1735.8	681.15	420.58	1842.4	622.48	378.1	1770.1	595.83	394.06	1802.9	700.81	403.07	1855.9	548.89	375.65	1845.5	528.24	250.07	1860.1	364.23	394.66	1945.6	335.23	383.19	1888.2	293.05	388.66	1913.2	401.27	391.62	1989.1	128.08	379	2010.8	153.13	292.09	1945.2	78.643	323.87	1972.5	57.699	295.61	1961.3	52.394	359.32	2103.1	119.93	417.6	2142.7	156.82	319.95	2170.6	192.65	366.41	1510.9	673.05	116.43	1576.8	565.58	116.91	1512.1	584.01	137.95	1576.2	651.46	91.526	1546.5	488.7	131.83	1575.9	503.63	262.66	1461.7	372.26	129.28	1497.6	268.88	146.67	1439.9	299	140.73	1518.4	343.74	135.75	1401.6	107	173.95	1415.8	98.954	267.85	1325.3	77.114	229.82	1337	49.905	259.56	1322.4	50.174	199.85	1491.2	42.485	134.52	1535.4	37.343	241.49	1583.3	52.02	179.4	1507.2	1464.1	262.06	1462.5	1194.7	246.73
489	2.0333	1731.4	1174	254.13	1592.4	1414.1	409.21	1593.7	1414.9	96.709	1603.4	1712.1	247.97	1702.3	1005.3	359.11	1687.1	1010.1	112.2	1476.3	1011.7	297.52	1477.8	1023.1	207.88	1636.6	909.99	437.12	1612.2	918.74	48.907	1609.4	1075.4	410.88	1569.6	1099.7	84.659	1458.3	982.55	245.81	1741.6	680.65	420.68	1848	621.97	377.81	1775.8	595.29	394.21	1808.6	700.32	402.74	1861.5	548.35	375.51	1850.9	527.62	249.96	1867.1	363.65	394.21	1953.1	335.64	383	1896.1	292.8	388.19	1919.8	401.32	391.47	1999.1	129.01	378.36	2020.6	154.5	291.53	1956	78.973	323.14	1983.7	58.453	294.9	1972.5	52.924	358.57	2113.2	122.48	417.03	2152.3	160.11	319.57	2179.6	196.31	366.1	1514.5	672.77	116.8	1579.8	564.98	117.06	1515.4	583.75	138.27	1579.5	650.91	91.676	1549.2	488.23	131.99	1579	502.98	262.71	1463.7	372.27	129.5	1499	268.68	146.83	1441.6	299.09	141.06	1520.2	343.45	135.81	1402	107.36	174.15	1416.3	99.183	268.04	1325.5	77.43	230.13	1337.2	50.089	259.77	1322.6	50.545	200.05	1491.3	42.481	134.56	1535.5	37.173	241.48	1583.5	51.588	179.33	1512.3	1463.3	262.48	1467.4	1193.9	247.12
490	2.0375	1736.3	1173	254.39	1597.5	1413.2	409.63	1598.9	1414	97.142	1608.6	1711.2	248.5	1707.6	1004.6	359.24	1691.9	1009.3	112.31	1481.4	1010.7	297.91	1482.7	1022.2	208.34	1642	909.25	437.23	1616.7	917.98	49.045	1614.6	1074.5	411.13	1574.4	1098.9	84.981	1463.4	981.64	246.28	1747.4	680.14	420.79	1853.7	621.45	377.55	1781.6	594.74	394.37	1814.3	699.82	402.43	1867	547.79	375.41	1856.3	527.01	249.88	1874.1	363.06	393.75	1960.4	335.99	382.84	1903.9	292.53	387.7	1926.4	401.32	391.36	2008.9	129.89	377.7	2030.2	155.8	290.97	1966.6	79.291	322.36	1994.7	59.186	294.16	1983.4	53.434	357.78	2123	124.93	416.49	2161.8	163.27	319.25	2188.4	199.81	365.85	1518	672.49	117.18	1582.8	564.37	117.21	1518.6	583.49	138.59	1582.9	650.36	91.836	1551.9	487.76	132.15	1582.2	502.32	262.77	1465.8	372.29	129.72	1500.5	268.48	146.99	1443.4	299.19	141.41	1522	343.16	135.86	1402.5	107.74	174.34	1416.8	99.429	268.24	1325.7	77.77	230.44	1337.4	50.299	259.98	1322.7	50.944	200.26	1491.4	42.477	134.6	1535.7	37.009	241.47	1583.7	51.158	179.27	1517.4	1462.5	262.92	1472.3	1193	247.5
491	2.0417	1741.3	1172	254.66	1602.6	1412.2	410.06	1604	1413.2	97.584	1613.7	1710.3	249.04	1712.9	1003.9	359.36	1696.6	1008.5	112.42	1486.5	1009.8	298.32	1487.7	1021.4	208.82	1647.5	908.53	437.35	1621.2	917.21	49.194	1619.7	1073.7	411.39	1579.1	1098.1	85.311	1468.5	980.75	246.78	1753.3	679.64	420.91	1859.3	620.92	377.32	1787.3	594.2	394.55	1820	699.3	402.14	1872.6	547.2	375.34	1861.7	526.42	249.83	1881	362.44	393.28	1967.6	336.29	382.69	1911.5	292.23	387.2	1932.9	401.28	391.26	2018.5	130.71	377.04	2039.6	157.04	290.4	1976.9	79.59	321.55	2005.4	59.888	293.4	1994	53.917	356.96	2132.5	127.25	415.98	2171	166.27	318.96	2197	203.14	365.65	1521.6	672.21	117.59	1585.8	563.76	117.36	1521.9	583.23	138.94	1586.3	649.8	92.007	1554.6	487.3	132.33	1585.4	501.65	262.83	1467.9	372.32	129.96	1501.9	268.29	147.16	1445.2	299.3	141.78	1523.8	342.89	135.92	1403	108.14	174.54	1417.3	99.694	268.43	1325.9	78.139	230.74	1337.6	50.539	260.19	1322.9	51.376	200.47	1491.5	42.476	134.65	1535.9	36.852	241.45	1584	50.732	179.21	1522.5	1461.7	263.36	1477.3	1192.2	247.89
492	2.0458	1746.3	1171	254.94	1607.8	1411.3	410.5	1609.2	1412.3	98.036	1618.8	1709.4	249.58	1718.2	1003.2	359.47	1701.4	1007.7	112.52	1491.7	1008.9	298.76	1492.7	1020.5	209.33	1653.1	907.84	437.48	1625.7	916.44	49.356	1624.9	1072.9	411.66	1583.9	1097.3	85.648	1473.7	979.86	247.32	1759.1	679.13	421.04	1865	620.38	377.11	1793.1	593.64	394.75	1825.8	698.78	401.87	1878.2	546.6	375.31	1867.2	525.85	249.81	1887.8	361.82	392.81	1974.7	336.52	382.55	1919	291.92	386.69	1939.3	401.2	391.19	2027.8	131.46	376.37	2048.8	158.2	289.84	1987	79.86	320.73	2015.8	60.547	292.62	2004.4	54.364	356.13	2141.7	129.44	415.5	2180	169.11	318.7	2205.3	206.28	365.48	1525.1	671.93	118.02	1588.9	563.14	117.51	1525.2	582.96	139.3	1589.6	649.24	92.19	1557.4	486.84	132.51	1588.7	500.96	262.89	1470	372.36	130.19	1503.4	268.11	147.34	1447	299.42	142.15	1525.7	342.63	135.97	1403.4	108.57	174.73	1417.9	99.978	268.63	1326.1	78.542	231.04	1337.8	50.816	260.41	1323	51.844	200.69	1491.6	42.476	134.7	1536.1	36.703	241.42	1584.2	50.309	179.14	1527.7	1460.9	263.81	1482.2	1191.4	248.27
493	2.05	1751.4	1169.9	255.22	1613	1410.4	410.94	1614.3	1411.5	98.497	1623.9	1708.5	250.13	1723.5	1002.5	359.57	1706.3	1006.8	112.61	1496.9	1008	299.22	1497.7	1019.7	209.87	1658.7	907.18	437.64	1630.1	915.66	49.532	1630.1	1072.1	411.92	1588.7	1096.5	85.991	1478.9	978.98	247.9	1765	678.62	421.17	1870.7	619.82	376.92	1798.9	593.08	394.95	1831.6	698.26	401.63	1883.8	545.98	375.3	1872.7	525.29	249.81	1894.5	361.2	392.35	1981.7	336.71	382.42	1926.4	291.6	386.2	1945.7	401.09	391.13	2036.8	132.15	375.71	2057.7	159.27	289.27	1996.7	80.091	319.9	2025.9	61.151	291.85	2014.4	54.766	355.31	2150.7	131.49	415.04	2188.7	171.78	318.45	2213.3	209.22	365.33	1528.7	671.64	118.48	1591.9	562.51	117.65	1528.5	582.69	139.69	1593	648.68	92.385	1560.1	486.38	132.7	1592	500.26	262.95	1472.2	372.4	130.44	1504.9	267.94	147.51	1448.8	299.55	142.53	1527.5	342.38	136.02	1403.9	109.02	174.93	1418.4	100.28	268.81	1326.3	78.983	231.34	1338	51.135	260.64	1323.2	52.352	200.91	1491.7	42.478	134.75	1536.3	36.56	241.4	1584.5	49.891	179.07	1532.8	1460.1	264.27	1487.2	1190.6	248.66
494	2.0542	1756.5	1168.9	255.51	1618.2	1409.5	411.4	1619.5	1410.6	98.967	1629	1707.7	250.7	1728.9	1001.8	359.66	1711.1	1006	112.71	1502.1	1007.1	299.7	1502.8	1018.9	210.43	1664.4	906.54	437.81	1634.6	914.87	49.723	1635.4	1071.4	412.2	1593.5	1095.7	86.341	1484.1	978.12	248.52	1770.9	678.1	421.32	1876.3	619.26	376.75	1804.7	592.52	395.15	1837.4	697.72	401.42	1889.4	545.36	375.31	1878.2	524.75	249.82	1901.2	360.58	391.9	1988.6	336.84	382.3	1933.7	291.25	385.73	1952	400.95	391.08	2045.6	132.77	375.06	2066.4	160.25	288.72	2006.2	80.275	319.09	2035.7	61.687	291.09	2024.1	55.116	354.5	2159.3	133.4	414.59	2197.1	174.24	318.22	2221.2	211.95	365.18	1532.3	671.36	118.95	1595	561.88	117.79	1531.8	582.42	140.08	1596.4	648.12	92.593	1562.9	485.92	132.9	1595.3	499.54	263.02	1474.3	372.46	130.69	1506.5	267.79	147.69	1450.7	299.69	142.92	1529.4	342.14	136.08	1404.5	109.5	175.12	1419	100.61	269	1326.6	79.469	231.63	1338.2	51.502	260.86	1323.4	52.906	201.14	1491.8	42.482	134.81	1536.5	36.425	241.36	1584.7	49.477	179.01	1538	1459.3	264.73	1492.2	1189.8	249.06
